<svg version="1.1" viewBox="0.0 0.0 400.0 400.0" fill="none" stroke="none" stroke-linecap="square" stroke-miterlimit="10" xmlns:xlink="http://www.w3.org/1999/xlink" xmlns="http://www.w3.org/2000/svg"><clipPath id="p.0"><path d="m0 0l400.0 0l0 400.0l-400.0 0l0 -400.0z" clip-rule="nonzero"/></clipPath><g clip-path="url(#p.0)"><path fill="#000000" fill-opacity="0.0" d="m0 0l400.0 0l0 400.0l-400.0 0z" fill-rule="evenodd"/><path fill="#cfe2f3" d="m380.44095 202.69029l-72.81543 25.894882l0 -51.789764zm-52.86252 -127.59514l-33.168396 69.80551l-36.620422 -36.620407zm-127.57843 -52.84581l25.894882 72.81542l-51.789764 0zm-127.59514 52.84581l69.80551 33.185104l-36.6204 36.620407zm-52.845806 127.59514l72.815414 -25.894882l0 51.789764zm52.845806 127.578415l33.185112 -69.78879l36.6204 36.62039zm127.59514 52.86252l-25.894882 -72.8154l51.789764 0zm127.57843 -52.86252l-69.78882 -33.168396l36.620422 -36.62039zm-217.7989 -127.578415l0 0c0 -49.827393 40.39308 -90.220474 90.220474 -90.220474c49.827393 0 90.22046 40.39308 90.22046 90.220474c0 49.827393 -40.393066 90.220474 -90.22046 90.220474c-49.827393 0 -90.220474 -40.39308 -90.220474 -90.220474z" fill-rule="evenodd"/><defs><radialGradient id="p.1" gradientUnits="userSpaceOnUse" gradientTransform="matrix(15.931140012970221 0.0 0.0 15.931140012970221 0.0 0.0)" spreadMethod="pad" cx="6.921520772879994" cy="7.090390590841578" fx="6.921520772879994" fy="7.090390590841578" r="15.931139945983887"><stop offset="0.0" stop-color="#dfe9fb"/><stop offset="0.24" stop-color="#a7c2f1"/><stop offset="0.32" stop-color="#8bafec"/><stop offset="0.43" stop-color="#7da5ea"/><stop offset="0.62" stop-color="#76a0e9"/><stop offset="1.0" stop-color="#6e9be7"/></radialGradient></defs><path fill="url(#p.1)" d="m110.267715 202.69029l0 0c0 -49.55777 40.174515 -89.732285 89.732285 -89.732285l0 0c23.798477 0 46.62224 9.453911 63.450317 26.281967c16.828064 16.82808 26.281952 39.651825 26.281952 63.450317l0 0c0 49.55777 -40.1745 89.732285 -89.73227 89.732285l0 0c-49.55777 0 -89.732285 -40.174515 -89.732285 -89.732285z" fill-rule="evenodd"/><path fill="#000000" fill-opacity="0.0" d="m134.22003 200.09842l0 0c17.445816 -17.445816 41.107407 -27.246765 65.779526 -27.246765c24.672104 0 48.33371 9.800949 65.779526 27.246765l-65.779526 65.77954z" fill-rule="evenodd"/><path fill="#000000" fill-opacity="0.0" d="m134.22003 200.09842l0 0c17.445816 -17.445816 41.107407 -27.246765 65.779526 -27.246765c24.672104 0 48.33371 9.800949 65.779526 27.246765" fill-rule="evenodd"/><path stroke="#000000" stroke-width="1.0" stroke-linejoin="round" stroke-linecap="butt" d="m134.22003 200.09842l0 0c17.445816 -17.445816 41.107407 -27.246765 65.779526 -27.246765c24.672104 0 48.33371 9.800949 65.779526 27.246765" fill-rule="evenodd"/><path fill="#000000" fill-opacity="0.0" d="m134.22003 199.90158l0 0c17.445816 17.445816 41.107407 27.246765 65.779526 27.246765c24.672104 0 48.33371 -9.800949 65.779526 -27.246765l-65.779526 -65.77954z" fill-rule="evenodd"/><path fill="#000000" fill-opacity="0.0" d="m134.22003 199.90158l0 0c17.445816 17.445816 41.107407 27.246765 65.779526 27.246765c24.672104 0 48.33371 -9.800949 65.779526 -27.246765" fill-rule="evenodd"/><path stroke="#000000" stroke-width="1.0" stroke-linejoin="round" stroke-linecap="butt" d="m134.22003 199.90158l0 0c17.445816 17.445816 41.107407 27.246765 65.779526 27.246765c24.672104 0 48.33371 -9.800949 65.779526 -27.246765" fill-rule="evenodd"/><path fill="#000000" fill-opacity="0.0" d="m169.19904 177.99597c-3.272461 12.880249 1.8151703 26.43663 12.75383 33.98352c10.93866 7.5468903 25.418167 7.490448 36.297653 -0.14149475c10.879486 -7.6319427 15.861282 -21.22757 12.488495 -34.081924l-30.739014 8.065445z" fill-rule="evenodd"/><path fill="#000000" fill-opacity="0.0" d="m169.19904 177.99597c-3.272461 12.880249 1.8151703 26.43663 12.75383 33.98352c10.93866 7.5468903 25.418167 7.490448 36.297653 -0.14149475c10.879486 -7.6319427 15.861282 -21.22757 12.488495 -34.081924" fill-rule="evenodd"/><path stroke="#000000" stroke-width="1.0" stroke-linejoin="round" stroke-linecap="butt" d="m169.19904 177.99597c-3.272461 12.880249 1.8151703 26.43663 12.75383 33.98352c10.93866 7.5468903 25.418167 7.490448 36.297653 -0.14149475c10.879486 -7.6319427 15.861282 -21.22757 12.488495 -34.081924" fill-rule="evenodd"/><path fill="#000000" d="m184.59842 188.01837l0 0c0 -8.506058 6.895523 -15.401581 15.401581 -15.401581l0 0c4.0847473 0 8.002197 1.6226654 10.890564 4.511017c2.8883514 2.8883667 4.511017 6.8058167 4.511017 10.890564l0 0c0 8.506058 -6.895523 15.401581 -15.401581 15.401581l0 0c-8.506058 0 -15.401581 -6.895523 -15.401581 -15.401581z" fill-rule="evenodd"/><path stroke="#000000" stroke-width="1.0" stroke-linejoin="round" stroke-linecap="butt" d="m184.59842 188.01837l0 0c0 -8.506058 6.895523 -15.401581 15.401581 -15.401581l0 0c4.0847473 0 8.002197 1.6226654 10.890564 4.511017c2.8883514 2.8883667 4.511017 6.8058167 4.511017 10.890564l0 0c0 8.506058 -6.895523 15.401581 -15.401581 15.401581l0 0c-8.506058 0 -15.401581 -6.895523 -15.401581 -15.401581z" fill-rule="evenodd"/><path fill="#ffffff" d="m190.22047 180.4357l0 0c0 -1.8873444 1.6427917 -3.417328 3.6692963 -3.417328l0 0c2.0264893 0 3.669281 1.5299835 3.669281 3.417328l0 0c0 1.8873291 -1.6427917 3.4173126 -3.669281 3.4173126l0 0c-2.0265045 0 -3.6692963 -1.5299835 -3.6692963 -3.4173126z" fill-rule="evenodd"/><path stroke="#ffffff" stroke-width="1.0" stroke-linejoin="round" stroke-linecap="butt" d="m190.22047 180.4357l0 0c0 -1.8873444 1.6427917 -3.417328 3.6692963 -3.417328l0 0c2.0264893 0 3.669281 1.5299835 3.669281 3.417328l0 0c0 1.8873291 -1.6427917 3.4173126 -3.669281 3.4173126l0 0c-2.0265045 0 -3.6692963 -1.5299835 -3.6692963 -3.4173126z" fill-rule="evenodd"/></g></svg>