<svg version="1.1" viewBox="0.0 0.0 400.0 400.0" fill="none" stroke="none" stroke-linecap="square" stroke-miterlimit="10" xmlns:xlink="http://www.w3.org/1999/xlink" xmlns="http://www.w3.org/2000/svg"><clipPath id="p.0"><path d="m0 0l400.0 0l0 400.0l-400.0 0l0 -400.0z" clip-rule="nonzero"/></clipPath><g clip-path="url(#p.0)"><path fill="#000000" fill-opacity="0.0" d="m0 0l400.0 0l0 400.0l-400.0 0z" fill-rule="evenodd"/><path fill="#ffffff" d="m36.088097 199.99394l0 0c0 -90.52252 73.382996 -163.90552 163.90552 -163.90552l0 0c43.470444 0 85.160446 17.268566 115.8987 48.006813c30.73825 30.738243 48.006805 72.428246 48.006805 115.898705l0 0c0 90.52251 -73.382996 163.9055 -163.9055 163.9055l0 0c-90.522514 0 -163.90552 -73.382996 -163.90552 -163.9055z" fill-rule="evenodd"/><path stroke="#000000" stroke-width="4.0" stroke-linejoin="round" stroke-linecap="butt" d="m36.088097 199.99394l0 0c0 -90.52252 73.382996 -163.90552 163.90552 -163.90552l0 0c43.470444 0 85.160446 17.268566 115.8987 48.006813c30.73825 30.738243 48.006805 72.428246 48.006805 115.898705l0 0c0 90.52251 -73.382996 163.9055 -163.9055 163.9055l0 0c-90.522514 0 -163.90552 -73.382996 -163.90552 -163.9055z" fill-rule="evenodd"/><path fill="#000000" fill-opacity="0.0" d="m111.62388 94.66851l0 0c10.881767 -9.13018 23.112633 -16.51899 36.25724 -21.903442l52.119476 127.23493z" fill-rule="evenodd"/><path fill="#000000" fill-opacity="0.0" d="m111.62388 94.66851l0 0c10.881767 -9.13018 23.112633 -16.51899 36.25724 -21.903442" fill-rule="evenodd"/><path stroke="#000000" stroke-width="4.0" stroke-linejoin="round" stroke-linecap="round" d="m111.62388 94.66851l0 0c10.881767 -9.13018 23.112633 -16.51899 36.25724 -21.903442" fill-rule="evenodd"/><path fill="#ffffff" d="m65.973305 295.51358l0 0c0 -0.0012512207 9.994507E-4 -0.0022277832 0.0022354126 -0.0022277832l268.06073 0.0022277832c6.1035156E-4 0 0.001159668 2.4414062E-4 0.0015869141 6.4086914E-4c4.272461E-4 4.272461E-4 6.713867E-4 0.0010070801 6.713867E-4 0.0015869141l-0.0022583008 35.74579c0 0.0012512207 -9.765625E-4 0.0022583008 -0.0022277832 0.0022583008l-268.06076 -0.0022583008l0 0c-0.0012359619 0 -0.0022354126 -9.765625E-4 -0.0022354126 -0.0022277832z" fill-rule="evenodd"/><path stroke="#000000" stroke-width="4.0" stroke-linejoin="round" stroke-linecap="butt" d="m65.973305 295.51358l0 0c0 -0.0012512207 9.994507E-4 -0.0022277832 0.0022354126 -0.0022277832l268.06073 0.0022277832c6.1035156E-4 0 0.001159668 2.4414062E-4 0.0015869141 6.4086914E-4c4.272461E-4 4.272461E-4 6.713867E-4 0.0010070801 6.713867E-4 0.0015869141l-0.0022583008 35.74579c0 0.0012512207 -9.765625E-4 0.0022583008 -0.0022277832 0.0022583008l-268.06076 -0.0022583008l0 0c-0.0012359619 0 -0.0022354126 -9.765625E-4 -0.0022354126 -0.0022277832z" fill-rule="evenodd"/><path fill="#ffffff" d="m61.046455 331.27264l277.92126 0c4.7404785 0 9.286804 1.8831482 12.638855 5.2351685c3.3520203 3.3520203 5.2351685 7.898346 5.2351685 12.638824l0 17.874023c0 0.0014648438 -0.001159668 0.0026245117 -0.0026245117 0.0026245117l-313.6667 -0.0026245117l0 0c-0.0014419556 0 -0.0026130676 -0.001159668 -0.0026130676 -0.0025939941l0.0026130676 -17.87143l0 0c0 -9.871521 8.002468 -17.873993 17.874016 -17.873993z" fill-rule="evenodd"/><path stroke="#000000" stroke-width="4.0" stroke-linejoin="round" stroke-linecap="butt" d="m61.046455 331.27264l277.92126 0c4.7404785 0 9.286804 1.8831482 12.638855 5.2351685c3.3520203 3.3520203 5.2351685 7.898346 5.2351685 12.638824l0 17.874023c0 0.0014648438 -0.001159668 0.0026245117 -0.0026245117 0.0026245117l-313.6667 -0.0026245117l0 0c-0.0014419556 0 -0.0026130676 -0.001159668 -0.0026130676 -0.0025939941l0.0026130676 -17.87143l0 0c0 -9.871521 8.002468 -17.873993 17.874016 -17.873993z" fill-rule="evenodd"/><path fill="#000000" fill-opacity="0.0" d="m64.86507 174.63158l0 0c4.7778015 -25.450958 16.64576 -49.03534 34.237625 -68.03811l100.8979 93.40653z" fill-rule="evenodd"/><path fill="#000000" fill-opacity="0.0" d="m64.86507 174.63158l0 0c4.7778015 -25.450958 16.64576 -49.03534 34.237625 -68.03811" fill-rule="evenodd"/><path stroke="#000000" stroke-width="4.0" stroke-linejoin="round" stroke-linecap="round" d="m64.86507 174.63158l0 0c4.7778015 -25.450958 16.64576 -49.03534 34.237625 -68.03811" fill-rule="evenodd"/><path fill="#000000" fill-opacity="0.0" d="m165.15256 66.9933l0 0c4.4004364 -1.1529236 8.855377 -2.0867615 13.348404 -2.7980576l21.499634 135.80475z" fill-rule="evenodd"/><path fill="#000000" fill-opacity="0.0" d="m165.15256 66.9933l0 0c4.4004364 -1.1529236 8.855377 -2.0867615 13.348404 -2.7980576" fill-rule="evenodd"/><path stroke="#000000" stroke-width="4.0" stroke-linejoin="round" stroke-linecap="round" d="m165.15256 66.9933l0 0c4.4004364 -1.1529236 8.855377 -2.0867615 13.348404 -2.7980576" fill-rule="evenodd"/><path fill="#ffffff" d="m185.23357 177.7869l0 0c0 -2.3743896 2.0728912 -4.2992096 4.6299286 -4.2992096l0 0c2.557022 0 4.6299133 1.92482 4.6299133 4.2992096l0 0c0 2.3743896 -2.0728912 4.299225 -4.6299133 4.299225l0 0c-2.5570374 0 -4.6299286 -1.9248352 -4.6299286 -4.299225z" fill-rule="evenodd"/><path stroke="#ffffff" stroke-width="1.0" stroke-linejoin="round" stroke-linecap="butt" d="m185.23357 177.7869l0 0c0 -2.3743896 2.0728912 -4.2992096 4.6299286 -4.2992096l0 0c2.557022 0 4.6299133 1.92482 4.6299133 4.2992096l0 0c0 2.3743896 -2.0728912 4.299225 -4.6299133 4.299225l0 0c-2.5570374 0 -4.6299286 -1.9248352 -4.6299286 -4.299225z" fill-rule="evenodd"/><g filter="url(#shadowFilter-p.1)"><use xlink:href="#p.1" transform="matrix(1.0 0.0 0.0 1.0 0.0 2.0)"/></g><defs><filter id="shadowFilter-p.1" filterUnits="userSpaceOnUse"><feGaussianBlur in="SourceAlpha" stdDeviation="2.0" result="blur"/><feComponentTransfer in="blur" color-interpolation-filters="sRGB"><feFuncR type="linear" slope="0" intercept="0.0"/><feFuncG type="linear" slope="0" intercept="0.0"/><feFuncB type="linear" slope="0" intercept="0.0"/><feFuncA type="linear" slope="0.5" intercept="0"/></feComponentTransfer></filter></defs><g id="p.1"><path fill="#000000" d="m96.213715 181.93486c2.308342 0 4.4571686 0.445755 6.446472 1.3372498c1.9893112 0.89149475 3.6877213 2.158371 5.095253 3.8006134c1.4169083 1.6422424 2.5288544 3.5894623 3.3358383 5.841675c0.80698395 2.2522278 1.2104721 4.762512 1.2104721 7.5308533c0 2.702652 -0.40348816 5.180084 -1.2104721 7.432312c-0.80698395 2.2522125 -1.91893 4.185364 -3.3358383 5.7994385c-1.4075317 1.61409 -3.1059418 2.8668823 -5.095253 3.7583923c-1.9893036 0.89149475 -4.13813 1.3372498 -6.446472 1.3372498c-2.364647 0 -4.527542 -0.445755 -6.488701 -1.3372498c-1.951767 -0.89151 -3.6361084 -2.1443024 -5.0530243 -3.7583923c-1.4169159 -1.6140747 -2.528862 -3.547226 -3.3358383 -5.7994385c-0.8069763 -2.2522278 -1.2104721 -4.72966 -1.2104721 -7.432312c0 -2.768341 0.4034958 -5.2786255 1.2104721 -7.5308533c0.8069763 -2.2522125 1.9189224 -4.1994324 3.3358383 -5.841675c1.4169083 -1.6422424 3.1012497 -2.9091187 5.0530243 -3.8006134c1.9611588 -0.89149475 4.124054 -1.3372498 6.488701 -1.3372498zm0 -3.3783264c-2.7118378 0 -5.292305 0.49267578 -7.7414017 1.4780121c-2.4490967 0.9759674 -4.5979233 2.3882904 -6.446472 4.2369843c-1.8391724 1.8393097 -3.2936172 4.129059 -4.3633347 6.8692627c-1.0603333 2.7401886 -1.5905075 5.841675 -1.5905075 9.304459c0 3.4533997 0.53017426 6.5220337 1.5905075 9.205917c1.0697174 2.683899 2.5241623 4.95018 4.3633347 6.798874c1.8485489 1.8393097 3.9973679 3.251648 6.446472 4.2369843c2.4490967 0.9759674 5.029564 1.4639435 7.7414017 1.4639435c2.7118301 0 5.292305 -0.48797607 7.7414017 -1.4639435c2.4490967 -0.9853363 4.593231 -2.3976746 6.432396 -4.2369843c1.8485565 -1.8486938 3.3076935 -4.114975 4.377411 -6.798874c1.069725 -2.6838837 1.6045837 -5.7525177 1.6045837 -9.205917c0 -3.4627838 -0.5348587 -6.56427 -1.6045837 -9.304459c-1.0697174 -2.7402039 -2.5288544 -5.029953 -4.377411 -6.8692627c-1.8391647 -1.8486938 -3.9832993 -3.2610168 -6.432396 -4.2369843c-2.4490967 -0.9853363 -5.0295715 -1.4780121 -7.7414017 -1.4780121z" fill-rule="evenodd"/><path fill="#000000" d="m159.68474 178.55653c-4.147522 0 -7.877472 1.0557251 -11.18985 3.1671753c-3.312378 2.102066 -6.094589 4.795349 -8.346634 8.079819l-0.16889954 0l-0.43634033 -10.205338l-3.2936096 0l0 41.511124l3.8988495 0l0 -25.942688c2.8807373 -4.72966 5.892853 -8.075134 9.036316 -10.036438c3.1434784 -1.9613037 6.4417877 -2.9419556 9.894928 -2.9419556c1.6233368 0 2.9651794 0.11730957 4.025528 0.35191345c1.0697174 0.22521973 2.3552551 0.60058594 3.8566284 1.1260986l1.0274811 -3.3783112c-1.3230743 -0.69444275 -2.6930542 -1.1542664 -4.10997 -1.3794861c-1.4075317 -0.23460388 -2.8056793 -0.35191345 -4.1944275 -0.35191345z" fill-rule="evenodd"/><path fill="#000000" d="m201.88802 181.93486c2.542923 0 4.7198944 0.445755 6.5309143 1.3372498c1.820404 0.89149475 3.2889252 2.1302185 4.4055634 3.716156c1.1260223 1.5859375 1.9470825 3.4768524 2.4631805 5.67276c0.5254669 2.1865234 0.788208 4.5466614 0.788208 7.0803986c0 2.8246613 -0.38941956 5.405319 -1.1682434 7.741989c-0.7788391 2.3366852 -1.8485565 4.3448944 -3.2091675 6.0246735c-1.3512268 1.6703949 -2.9651947 2.9654236 -4.8418884 3.8850708c-1.8673248 0.9196625 -3.927002 1.3794861 -6.1790466 1.3794861c-1.7265625 0 -3.828476 -0.47390747 -6.305725 -1.4217072c-2.4772491 -0.9571991 -4.926346 -2.5290527 -7.34729 -4.715576l0 -23.099274c2.5898438 -2.5900574 5.165619 -4.504425 7.7273254 -5.743149c2.5710754 -1.2387238 4.9497986 -1.858078 7.1361694 -1.858078zm-18.762344 -23.014816l0 62.18927l3.1950836 0l0.43634033 -4.67334l0.16889954 0c2.0831451 1.736084 4.3914795 3.124939 6.9250336 4.1665955c2.533554 1.0322723 4.870041 1.5484009 7.009491 1.5484009c2.5335388 0 4.968567 -0.50205994 7.3050537 -1.5061646c2.336502 -1.013504 4.3821106 -2.4868317 6.1368256 -4.419983c1.754715 -1.9331512 3.1669312 -4.283905 4.236664 -7.052246c1.0697174 -2.768341 1.6045685 -5.9120636 1.6045685 -9.431152c0 -6.4563446 -1.4732056 -11.598892 -4.419632 -15.427658c-2.9370422 -3.83815 -7.34729 -5.7572327 -13.230759 -5.7572327c-2.7024536 0 -5.437744 0.666275 -8.205887 1.9988403c-2.7681274 1.3231812 -5.2782135 3.0780334 -7.530258 5.264557l0.26742554 -8.910324l0 -17.989563z" fill-rule="evenodd"/><path fill="#000000" d="m251.43858 181.6674c1.557663 0 3.0402527 0.29092407 4.4477844 0.8727417c1.4169159 0.5724335 2.6602325 1.3794708 3.7299347 2.4211273c1.0697327 1.0322571 1.9048767 2.2709808 2.5054016 3.716156c0.6099243 1.4451752 0.9148865 3.0029602 0.9148865 4.67334c0 1.7266998 -0.30496216 3.2985687 -0.9148865 4.715576c-0.6005249 1.4076385 -1.435669 2.6181946 -2.5054016 3.6316986c-1.0697021 1.0041199 -2.3130188 1.7830048 -3.7299347 2.33667c-1.4075317 0.544281 -2.8901215 0.81643677 -4.4477844 0.81643677c-1.6139679 0 -3.1294098 -0.27215576 -4.5463104 -0.81643677c-1.4075317 -0.55366516 -2.63208 -1.3325653 -3.6736603 -2.33667c-1.0321808 -1.013504 -1.853241 -2.22406 -2.4631653 -3.6316986c-0.60054016 -1.4170074 -0.9008179 -2.9888763 -0.9008179 -4.715576c0 -1.6703949 0.3002777 -3.22818 0.9008179 -4.67334c0.6099243 -1.4451752 1.4309845 -2.683899 2.4631653 -3.716156c1.0415802 -1.0416565 2.2661285 -1.8486938 3.6736603 -2.4211273c1.4169006 -0.5818176 2.9323425 -0.8727417 4.5463104 -0.8727417zm-7.868088 38.752167c0.98527527 0.2909088 2.0221558 0.49267578 3.1106415 0.60528564c1.0978699 0.11260986 2.1675873 0.1689148 3.2091675 0.1689148l9.852676 0c3.6314392 0 6.338562 0.43167114 8.121429 1.2950287c1.7922668 0.86335754 2.688385 2.4774323 2.688385 4.8422546c0 1.3325653 -0.41757202 2.6322784 -1.2526855 3.8991547c-0.83514404 1.266861 -2.0315552 2.3882751 -3.589203 3.3642426c-1.5576477 0.98535156 -3.476593 1.7923889 -5.756775 2.4211273c-2.270813 0.6381378 -4.818451 0.9571991 -7.6428833 0.9571991c-5.245392 0 -9.139542 -0.8352051 -11.68248 -2.5056c-2.533554 -1.6703796 -3.8003235 -3.7771454 -3.8003235 -6.3202667c0 -1.492096 0.48794556 -2.9888763 1.4638214 -4.4903564c0.98527527 -1.5014801 2.74469 -2.913803 5.2782288 -4.2369843zm7.868088 -41.863037c-2.130066 0 -4.133438 0.3753662 -6.010147 1.1261139c-1.8673248 0.7507324 -3.50943 1.7736206 -4.926346 3.068634c-1.4075317 1.2950287 -2.5147858 2.8528137 -3.321762 4.673355c-0.8069763 1.8111572 -1.2104797 3.7865295 -1.2104797 5.926132c0 2.5337372 0.48794556 4.682724 1.4638367 6.4469604c0.98526 1.7548523 2.1394348 3.1812592 3.4625092 4.2792206l0 0.3378296c-1.6702576 1.1542511 -2.9229584 2.425827 -3.7580872 3.814682c-0.83514404 1.3794861 -1.2527008 2.7308197 -1.2527008 4.0539856c0 1.736084 0.4597931 3.1531067 1.3793793 4.251053c0.9195709 1.0885773 1.9001617 1.8909302 2.9417267 2.4070587l0 0.35191345c-2.2520447 1.3794861 -3.983307 2.9325714 -5.1937714 4.6592712c-1.2104797 1.736084 -1.8157196 3.4393158 -1.8157196 5.1097107c0 3.6316986 1.5998993 6.540802 4.7996674 8.727325c3.1997833 2.1959076 8.055756 3.293869 14.567917 3.293869c3.3499146 0 6.3760986 -0.40351868 9.078552 -1.2105713c2.7118225 -0.80703735 5.020172 -1.8721466 6.9250183 -3.1953278c1.9048767 -1.3231812 3.3733826 -2.8387299 4.4055786 -4.5466614c1.041565 -1.6985321 1.5623474 -3.4393158 1.5623474 -5.2223206c0 -3.350174 -1.1964111 -5.743149 -3.589203 -7.1789246c-2.3927917 -1.4451752 -6.2400208 -2.1677704 -11.541718 -2.1677704l-10.289017 0c-2.9464264 0 -5.2829285 -0.4598236 -7.009491 -1.3794708c-1.7265625 -0.92904663 -2.5898438 -2.402359 -2.5898438 -4.4199677c0 -1.1448822 0.370636 -2.205307 1.1119385 -3.1812592c0.75068665 -0.98535156 1.7312622 -1.8533783 2.9417267 -2.604126c1.2761688 0.6287384 2.589859 1.1026459 3.9410858 1.4217072c1.3512268 0.31906128 2.6602173 0.47860718 3.927002 0.47860718c2.1394348 0 4.1287384 -0.3612976 5.967911 -1.0838776c1.8485413 -0.7225952 3.4625244 -1.7173157 4.8418884 -2.984192c1.3887634 -1.2668762 2.4866333 -2.7777405 3.2936096 -4.5325775c0.80700684 -1.7642365 1.2104797 -3.7114716 1.2104797 -5.84169c0 -2.2522125 -0.49261475 -4.269821 -1.4779053 -6.052826c-0.9758911 -1.7923889 -2.1253662 -3.3220062 -3.4484253 -4.5888824l12.625519 0l0 -3.1953278l-17.298523 0c-1.6702576 -0.69444275 -3.575119 -1.0416565 -5.714554 -1.0416565z" fill-rule="evenodd"/><path fill="#000000" d="m303.762 181.93486c2.308319 0 4.4571533 0.445755 6.446472 1.3372498c1.9892883 0.89149475 3.6877136 2.158371 5.0952454 3.8006134c1.4169006 1.6422424 2.5288696 3.5894623 3.335846 5.841675c0.8069763 2.2522278 1.2104492 4.762512 1.2104492 7.5308533c0 2.702652 -0.4034729 5.180084 -1.2104492 7.432312c-0.8069763 2.2522125 -1.9189453 4.185364 -3.335846 5.7994385c-1.4075317 1.61409 -3.105957 2.8668823 -5.0952454 3.7583923c-1.9893188 0.89149475 -4.138153 1.3372498 -6.446472 1.3372498c-2.3646545 0 -4.5275574 -0.445755 -6.4887085 -1.3372498c-1.9517822 -0.89151 -3.6361084 -2.1443024 -5.0530396 -3.7583923c-1.4169006 -1.6140747 -2.528839 -3.547226 -3.3358154 -5.7994385c-0.80700684 -2.2522278 -1.2104797 -4.72966 -1.2104797 -7.432312c0 -2.768341 0.4034729 -5.2786255 1.2104797 -7.5308533c0.8069763 -2.2522125 1.9189148 -4.1994324 3.3358154 -5.841675c1.4169312 -1.6422424 3.1012573 -2.9091187 5.0530396 -3.8006134c1.9611511 -0.89149475 4.124054 -1.3372498 6.4887085 -1.3372498zm0 -3.3783264c-2.711853 0 -5.292328 0.49267578 -7.7414246 1.4780121c-2.4490967 0.9759674 -4.5979004 2.3882904 -6.446472 4.2369843c-1.8391724 1.8393097 -3.2936096 4.129059 -4.3633423 6.8692627c-1.0603333 2.7401886 -1.5904846 5.841675 -1.5904846 9.304459c0 3.4533997 0.53015137 6.5220337 1.5904846 9.205917c1.0697327 2.683899 2.52417 4.95018 4.3633423 6.798874c1.8485718 1.8393097 3.9973755 3.251648 6.446472 4.2369843c2.4490967 0.9759674 5.0295715 1.4639435 7.7414246 1.4639435c2.7118225 0 5.2922974 -0.48797607 7.741394 -1.4639435c2.4490967 -0.9853363 4.593231 -2.3976746 6.4324036 -4.2369843c1.8485413 -1.8486938 3.3076782 -4.114975 4.377411 -6.798874c1.0697021 -2.6838837 1.6045837 -5.7525177 1.6045837 -9.205917c0 -3.4627838 -0.5348816 -6.56427 -1.6045837 -9.304459c-1.0697327 -2.7402039 -2.5288696 -5.029953 -4.377411 -6.8692627c-1.8391724 -1.8486938 -3.983307 -3.2610168 -6.4324036 -4.2369843c-2.4490967 -0.9853363 -5.0295715 -1.4780121 -7.741394 -1.4780121z" fill-rule="evenodd"/><path stroke="#000000" stroke-width="4.0" stroke-linejoin="round" stroke-linecap="butt" d="m96.213715 181.93486c2.308342 0 4.4571686 0.445755 6.446472 1.3372498c1.9893112 0.89149475 3.6877213 2.158371 5.095253 3.8006134c1.4169083 1.6422424 2.5288544 3.5894623 3.3358383 5.841675c0.80698395 2.2522278 1.2104721 4.762512 1.2104721 7.5308533c0 2.702652 -0.40348816 5.180084 -1.2104721 7.432312c-0.80698395 2.2522125 -1.91893 4.185364 -3.3358383 5.7994385c-1.4075317 1.61409 -3.1059418 2.8668823 -5.095253 3.7583923c-1.9893036 0.89149475 -4.13813 1.3372498 -6.446472 1.3372498c-2.364647 0 -4.527542 -0.445755 -6.488701 -1.3372498c-1.951767 -0.89151 -3.6361084 -2.1443024 -5.0530243 -3.7583923c-1.4169159 -1.6140747 -2.528862 -3.547226 -3.3358383 -5.7994385c-0.8069763 -2.2522278 -1.2104721 -4.72966 -1.2104721 -7.432312c0 -2.768341 0.4034958 -5.2786255 1.2104721 -7.5308533c0.8069763 -2.2522125 1.9189224 -4.1994324 3.3358383 -5.841675c1.4169083 -1.6422424 3.1012497 -2.9091187 5.0530243 -3.8006134c1.9611588 -0.89149475 4.124054 -1.3372498 6.488701 -1.3372498zm0 -3.3783264c-2.7118378 0 -5.292305 0.49267578 -7.7414017 1.4780121c-2.4490967 0.9759674 -4.5979233 2.3882904 -6.446472 4.2369843c-1.8391724 1.8393097 -3.2936172 4.129059 -4.3633347 6.8692627c-1.0603333 2.7401886 -1.5905075 5.841675 -1.5905075 9.304459c0 3.4533997 0.53017426 6.5220337 1.5905075 9.205917c1.0697174 2.683899 2.5241623 4.95018 4.3633347 6.798874c1.8485489 1.8393097 3.9973679 3.251648 6.446472 4.2369843c2.4490967 0.9759674 5.029564 1.4639435 7.7414017 1.4639435c2.7118301 0 5.292305 -0.48797607 7.7414017 -1.4639435c2.4490967 -0.9853363 4.593231 -2.3976746 6.432396 -4.2369843c1.8485565 -1.8486938 3.3076935 -4.114975 4.377411 -6.798874c1.069725 -2.6838837 1.6045837 -5.7525177 1.6045837 -9.205917c0 -3.4627838 -0.5348587 -6.56427 -1.6045837 -9.304459c-1.0697174 -2.7402039 -2.5288544 -5.029953 -4.377411 -6.8692627c-1.8391647 -1.8486938 -3.9832993 -3.2610168 -6.432396 -4.2369843c-2.4490967 -0.9853363 -5.0295715 -1.4780121 -7.7414017 -1.4780121z" fill-rule="evenodd"/><path stroke="#000000" stroke-width="4.0" stroke-linejoin="round" stroke-linecap="butt" d="m159.68474 178.55653c-4.147522 0 -7.877472 1.0557251 -11.18985 3.1671753c-3.312378 2.102066 -6.094589 4.795349 -8.346634 8.079819l-0.16889954 0l-0.43634033 -10.205338l-3.2936096 0l0 41.511124l3.8988495 0l0 -25.942688c2.8807373 -4.72966 5.892853 -8.075134 9.036316 -10.036438c3.1434784 -1.9613037 6.4417877 -2.9419556 9.894928 -2.9419556c1.6233368 0 2.9651794 0.11730957 4.025528 0.35191345c1.0697174 0.22521973 2.3552551 0.60058594 3.8566284 1.1260986l1.0274811 -3.3783112c-1.3230743 -0.69444275 -2.6930542 -1.1542664 -4.10997 -1.3794861c-1.4075317 -0.23460388 -2.8056793 -0.35191345 -4.1944275 -0.35191345z" fill-rule="evenodd"/><path stroke="#000000" stroke-width="4.0" stroke-linejoin="round" stroke-linecap="butt" d="m201.88802 181.93486c2.542923 0 4.7198944 0.445755 6.5309143 1.3372498c1.820404 0.89149475 3.2889252 2.1302185 4.4055634 3.716156c1.1260223 1.5859375 1.9470825 3.4768524 2.4631805 5.67276c0.5254669 2.1865234 0.788208 4.5466614 0.788208 7.0803986c0 2.8246613 -0.38941956 5.405319 -1.1682434 7.741989c-0.7788391 2.3366852 -1.8485565 4.3448944 -3.2091675 6.0246735c-1.3512268 1.6703949 -2.9651947 2.9654236 -4.8418884 3.8850708c-1.8673248 0.9196625 -3.927002 1.3794861 -6.1790466 1.3794861c-1.7265625 0 -3.828476 -0.47390747 -6.305725 -1.4217072c-2.4772491 -0.9571991 -4.926346 -2.5290527 -7.34729 -4.715576l0 -23.099274c2.5898438 -2.5900574 5.165619 -4.504425 7.7273254 -5.743149c2.5710754 -1.2387238 4.9497986 -1.858078 7.1361694 -1.858078zm-18.762344 -23.014816l0 62.18927l3.1950836 0l0.43634033 -4.67334l0.16889954 0c2.0831451 1.736084 4.3914795 3.124939 6.9250336 4.1665955c2.533554 1.0322723 4.870041 1.5484009 7.009491 1.5484009c2.5335388 0 4.968567 -0.50205994 7.3050537 -1.5061646c2.336502 -1.013504 4.3821106 -2.4868317 6.1368256 -4.419983c1.754715 -1.9331512 3.1669312 -4.283905 4.236664 -7.052246c1.0697174 -2.768341 1.6045685 -5.9120636 1.6045685 -9.431152c0 -6.4563446 -1.4732056 -11.598892 -4.419632 -15.427658c-2.9370422 -3.83815 -7.34729 -5.7572327 -13.230759 -5.7572327c-2.7024536 0 -5.437744 0.666275 -8.205887 1.9988403c-2.7681274 1.3231812 -5.2782135 3.0780334 -7.530258 5.264557l0.26742554 -8.910324l0 -17.989563z" fill-rule="evenodd"/><path stroke="#000000" stroke-width="4.0" stroke-linejoin="round" stroke-linecap="butt" d="m251.43858 181.6674c1.557663 0 3.0402527 0.29092407 4.4477844 0.8727417c1.4169159 0.5724335 2.6602325 1.3794708 3.7299347 2.4211273c1.0697327 1.0322571 1.9048767 2.2709808 2.5054016 3.716156c0.6099243 1.4451752 0.9148865 3.0029602 0.9148865 4.67334c0 1.7266998 -0.30496216 3.2985687 -0.9148865 4.715576c-0.6005249 1.4076385 -1.435669 2.6181946 -2.5054016 3.6316986c-1.0697021 1.0041199 -2.3130188 1.7830048 -3.7299347 2.33667c-1.4075317 0.544281 -2.8901215 0.81643677 -4.4477844 0.81643677c-1.6139679 0 -3.1294098 -0.27215576 -4.5463104 -0.81643677c-1.4075317 -0.55366516 -2.63208 -1.3325653 -3.6736603 -2.33667c-1.0321808 -1.013504 -1.853241 -2.22406 -2.4631653 -3.6316986c-0.60054016 -1.4170074 -0.9008179 -2.9888763 -0.9008179 -4.715576c0 -1.6703949 0.3002777 -3.22818 0.9008179 -4.67334c0.6099243 -1.4451752 1.4309845 -2.683899 2.4631653 -3.716156c1.0415802 -1.0416565 2.2661285 -1.8486938 3.6736603 -2.4211273c1.4169006 -0.5818176 2.9323425 -0.8727417 4.5463104 -0.8727417zm-7.868088 38.752167c0.98527527 0.2909088 2.0221558 0.49267578 3.1106415 0.60528564c1.0978699 0.11260986 2.1675873 0.1689148 3.2091675 0.1689148l9.852676 0c3.6314392 0 6.338562 0.43167114 8.121429 1.2950287c1.7922668 0.86335754 2.688385 2.4774323 2.688385 4.8422546c0 1.3325653 -0.41757202 2.6322784 -1.2526855 3.8991547c-0.83514404 1.266861 -2.0315552 2.3882751 -3.589203 3.3642426c-1.5576477 0.98535156 -3.476593 1.7923889 -5.756775 2.4211273c-2.270813 0.6381378 -4.818451 0.9571991 -7.6428833 0.9571991c-5.245392 0 -9.139542 -0.8352051 -11.68248 -2.5056c-2.533554 -1.6703796 -3.8003235 -3.7771454 -3.8003235 -6.3202667c0 -1.492096 0.48794556 -2.9888763 1.4638214 -4.4903564c0.98527527 -1.5014801 2.74469 -2.913803 5.2782288 -4.2369843zm7.868088 -41.863037c-2.130066 0 -4.133438 0.3753662 -6.010147 1.1261139c-1.8673248 0.7507324 -3.50943 1.7736206 -4.926346 3.068634c-1.4075317 1.2950287 -2.5147858 2.8528137 -3.321762 4.673355c-0.8069763 1.8111572 -1.2104797 3.7865295 -1.2104797 5.926132c0 2.5337372 0.48794556 4.682724 1.4638367 6.4469604c0.98526 1.7548523 2.1394348 3.1812592 3.4625092 4.2792206l0 0.3378296c-1.6702576 1.1542511 -2.9229584 2.425827 -3.7580872 3.814682c-0.83514404 1.3794861 -1.2527008 2.7308197 -1.2527008 4.0539856c0 1.736084 0.4597931 3.1531067 1.3793793 4.251053c0.9195709 1.0885773 1.9001617 1.8909302 2.9417267 2.4070587l0 0.35191345c-2.2520447 1.3794861 -3.983307 2.9325714 -5.1937714 4.6592712c-1.2104797 1.736084 -1.8157196 3.4393158 -1.8157196 5.1097107c0 3.6316986 1.5998993 6.540802 4.7996674 8.727325c3.1997833 2.1959076 8.055756 3.293869 14.567917 3.293869c3.3499146 0 6.3760986 -0.40351868 9.078552 -1.2105713c2.7118225 -0.80703735 5.020172 -1.8721466 6.9250183 -3.1953278c1.9048767 -1.3231812 3.3733826 -2.8387299 4.4055786 -4.5466614c1.041565 -1.6985321 1.5623474 -3.4393158 1.5623474 -5.2223206c0 -3.350174 -1.1964111 -5.743149 -3.589203 -7.1789246c-2.3927917 -1.4451752 -6.2400208 -2.1677704 -11.541718 -2.1677704l-10.289017 0c-2.9464264 0 -5.2829285 -0.4598236 -7.009491 -1.3794708c-1.7265625 -0.92904663 -2.5898438 -2.402359 -2.5898438 -4.4199677c0 -1.1448822 0.370636 -2.205307 1.1119385 -3.1812592c0.75068665 -0.98535156 1.7312622 -1.8533783 2.9417267 -2.604126c1.2761688 0.6287384 2.589859 1.1026459 3.9410858 1.4217072c1.3512268 0.31906128 2.6602173 0.47860718 3.927002 0.47860718c2.1394348 0 4.1287384 -0.3612976 5.967911 -1.0838776c1.8485413 -0.7225952 3.4625244 -1.7173157 4.8418884 -2.984192c1.3887634 -1.2668762 2.4866333 -2.7777405 3.2936096 -4.5325775c0.80700684 -1.7642365 1.2104797 -3.7114716 1.2104797 -5.84169c0 -2.2522125 -0.49261475 -4.269821 -1.4779053 -6.052826c-0.9758911 -1.7923889 -2.1253662 -3.3220062 -3.4484253 -4.5888824l12.625519 0l0 -3.1953278l-17.298523 0c-1.6702576 -0.69444275 -3.575119 -1.0416565 -5.714554 -1.0416565z" fill-rule="evenodd"/><path stroke="#000000" stroke-width="4.0" stroke-linejoin="round" stroke-linecap="butt" d="m303.762 181.93486c2.308319 0 4.4571533 0.445755 6.446472 1.3372498c1.9892883 0.89149475 3.6877136 2.158371 5.0952454 3.8006134c1.4169006 1.6422424 2.5288696 3.5894623 3.335846 5.841675c0.8069763 2.2522278 1.2104492 4.762512 1.2104492 7.5308533c0 2.702652 -0.4034729 5.180084 -1.2104492 7.432312c-0.8069763 2.2522125 -1.9189453 4.185364 -3.335846 5.7994385c-1.4075317 1.61409 -3.105957 2.8668823 -5.0952454 3.7583923c-1.9893188 0.89149475 -4.138153 1.3372498 -6.446472 1.3372498c-2.3646545 0 -4.5275574 -0.445755 -6.4887085 -1.3372498c-1.9517822 -0.89151 -3.6361084 -2.1443024 -5.0530396 -3.7583923c-1.4169006 -1.6140747 -2.528839 -3.547226 -3.3358154 -5.7994385c-0.80700684 -2.2522278 -1.2104797 -4.72966 -1.2104797 -7.432312c0 -2.768341 0.4034729 -5.2786255 1.2104797 -7.5308533c0.8069763 -2.2522125 1.9189148 -4.1994324 3.3358154 -5.841675c1.4169312 -1.6422424 3.1012573 -2.9091187 5.0530396 -3.8006134c1.9611511 -0.89149475 4.124054 -1.3372498 6.4887085 -1.3372498zm0 -3.3783264c-2.711853 0 -5.292328 0.49267578 -7.7414246 1.4780121c-2.4490967 0.9759674 -4.5979004 2.3882904 -6.446472 4.2369843c-1.8391724 1.8393097 -3.2936096 4.129059 -4.3633423 6.8692627c-1.0603333 2.7401886 -1.5904846 5.841675 -1.5904846 9.304459c0 3.4533997 0.53015137 6.5220337 1.5904846 9.205917c1.0697327 2.683899 2.52417 4.95018 4.3633423 6.798874c1.8485718 1.8393097 3.9973755 3.251648 6.446472 4.2369843c2.4490967 0.9759674 5.0295715 1.4639435 7.7414246 1.4639435c2.7118225 0 5.2922974 -0.48797607 7.741394 -1.4639435c2.4490967 -0.9853363 4.593231 -2.3976746 6.4324036 -4.2369843c1.8485413 -1.8486938 3.3076782 -4.114975 4.377411 -6.798874c1.0697021 -2.6838837 1.6045837 -5.7525177 1.6045837 -9.205917c0 -3.4627838 -0.5348816 -6.56427 -1.6045837 -9.304459c-1.0697327 -2.7402039 -2.5288696 -5.029953 -4.377411 -6.8692627c-1.8391724 -1.8486938 -3.983307 -3.2610168 -6.4324036 -4.2369843c-2.4490967 -0.9853363 -5.0295715 -1.4780121 -7.741394 -1.4780121z" fill-rule="evenodd"/></g></g></svg>